<?xml version="1.0" encoding="UTF-8" standalone="no"?>
<!-- Uploaded to: SVG Repo, www.svgrepo.com, Generator: SVG Repo Mixer Tools -->

<svg
   width="800px"
   height="800px"
   viewBox="0 0 24 24"
   fill="none"
   version="1.1"
   id="svg4"
   sodipodi:docname="library-svgrepo-com.svg"
   inkscape:version="1.3.2 (091e20e, 2023-11-25, custom)"
   xmlns:inkscape="http://www.inkscape.org/namespaces/inkscape"
   xmlns:sodipodi="http://sodipodi.sourceforge.net/DTD/sodipodi-0.dtd"
   xmlns="http://www.w3.org/2000/svg"
   xmlns:svg="http://www.w3.org/2000/svg">
  <defs
     id="defs4" />
  <sodipodi:namedview
     id="namedview4"
     pagecolor="#ffffff"
     bordercolor="#000000"
     borderopacity="0.25"
     inkscape:showpageshadow="2"
     inkscape:pageopacity="0.0"
     inkscape:pagecheckerboard="0"
     inkscape:deskcolor="#d1d1d1"
     inkscape:zoom="0.508125"
     inkscape:cx="-337.51537"
     inkscape:cy="624.84625"
     inkscape:window-width="1920"
     inkscape:window-height="1009"
     inkscape:window-x="-8"
     inkscape:window-y="-8"
     inkscape:window-maximized="1"
     inkscape:current-layer="svg4" />
  <path
     d="M19.5617 7C19.7904 5.69523 18.7863 4.5 17.4617 4.5H6.53788C5.21323 4.5 4.20922 5.69523 4.43784 7"
     stroke="#1C274C"
     stroke-width="1.5"
     id="path1" />
  <path
     d="M17.4999 4.5C17.5283 4.24092 17.5425 4.11135 17.5427 4.00435C17.545 2.98072 16.7739 2.12064 15.7561 2.01142C15.6497 2 15.5194 2 15.2588 2H8.74099C8.48035 2 8.35002 2 8.24362 2.01142C7.22584 2.12064 6.45481 2.98072 6.45704 4.00434C6.45727 4.11135 6.47146 4.2409 6.49983 4.5"
     stroke="#1C274C"
     stroke-width="1.5"
     id="path2" />
  <path
     d="M15 18H9"
     stroke="#1C274C"
     stroke-width="1.5"
     stroke-linecap="round"
     id="path3" />
  <path
     d="M21.1935 16.793C20.8437 19.2739 20.6689 20.5143 19.7717 21.2572C18.8745 22 17.5512 22 14.9046 22H9.09536C6.44881 22 5.12553 22 4.22834 21.2572C3.33115 20.5143 3.15626 19.2739 2.80648 16.793L2.38351 13.793C1.93748 10.6294 1.71447 9.04765 2.66232 8.02383C3.61017 7 5.29758 7 8.67239 7H15.3276C18.7024 7 20.3898 7 21.3377 8.02383C22.0865 8.83268 22.1045 9.98979 21.8592 12"
     stroke="#1C274C"
     stroke-width="1.5"
     stroke-linecap="round"
     id="path4" />
  <path
     style="fill:none;fill-rule:evenodd;stroke-width:23.1528;paint-order:stroke fill markers;fill-opacity:1"
     d="m 222.50163,756.66704 c -25.56842,-1.49528 -44.68656,-4.50449 -59.648,-9.38862 C 122.83464,734.21427 99.647474,708.01874 86.611275,661.14418 80.207356,638.11746 77.549849,621.8878 61.574323,508.24108 44.273779,385.16844 43.467437,378.29204 42.650814,346.86347 41.826676,315.14561 44.862768,295.76805 53.629378,276.79388 65.102569,251.96165 86.899782,232.60459 114.33373,222.88522 l 7.56867,-2.68145 0.62273,-5.55084 c 2.30072,-20.50798 7.94465,-35.6624 18.73166,-50.29606 11.05037,-14.99094 29.79644,-28.83459 45.35787,-33.49603 l 4.08085,-1.22241 0.69716,-6.51663 c 0.94286,-8.81336 4.76705,-21.63254 8.92486,-29.917233 11.66655,-23.246391 31.20029,-39.528958 57.20934,-47.687494 l 8.64779,-2.712645 H 399.508 532.84133 l 7.87208,2.274127 c 26.63527,7.694539 47.03146,24.311212 58.90304,47.988031 4.21908,8.414564 8.04341,21.198744 8.99088,30.055214 l 0.69716,6.51663 4.08085,1.22241 c 6.2083,1.85971 18.14266,8.13847 24.80574,13.05051 21.40134,15.77714 35.4958,39.87448 38.70539,66.17475 0.59442,4.87085 1.08201,9.13078 1.08353,9.4665 0.002,0.33572 3.43451,1.82664 7.62886,3.31315 31.45127,11.14656 54.75393,34.16615 64.72443,63.93818 8.25191,24.64032 9.39579,56.55112 3.7931,105.816 -1.66518,14.6421 -3.31967,19.52159 -8.31184,24.51376 -4.74141,4.74142 -10.16151,6.93133 -17.15526,6.93133 -10.2067,0 -19.18932,-6.05683 -22.72923,-15.32598 -1.85827,-4.86579 -1.71784,-9.73425 1.10351,-38.25934 2.25261,-22.77477 1.63115,-51.73187 -1.34765,-62.79355 -6.44879,-23.94748 -22.56237,-37.00021 -53.58804,-43.40874 -27.91696,-5.7664 -54.33318,-6.44137 -252.09788,-6.44137 -197.73805,0 -224.03408,0.67139 -252.12653,6.43728 -30.80645,6.32291 -47.13574,19.5587 -53.559397,43.41283 -1.655818,6.14884 -2.163658,11.53253 -2.535315,26.8772 -0.719065,29.68822 0.338892,39.31508 18.491822,168.26568 15.34608,109.01195 18.30368,127.2521 23.69396,146.12546 11.1857,39.16531 26.52581,51.42792 71.69352,57.31048 12.25751,1.5964 27.27649,1.73011 194.34194,1.73011 167.06545,0 182.08443,-0.13371 194.34194,-1.73011 41.66068,-5.42582 58.32481,-17.01925 68.8108,-47.87251 5.33144,-15.68687 11.28141,-46.35547 16.81718,-86.68274 1.15152,-8.38869 2.69493,-17.12378 3.42978,-19.41133 5.16865,-16.08952 24.60164,-22.02107 38.18995,-11.65677 1.8195,1.38781 4.59682,4.84993 6.17181,7.6936 2.44835,4.42056 2.84723,6.16917 2.7506,12.05838 -0.1296,7.89803 -7.00267,53.94942 -11.29062,75.65004 -11.34066,57.39332 -29.83908,86.96029 -65.32798,104.41704 -16.27213,8.00417 -33.4158,12.26076 -62.01154,15.39682 -12.5923,1.38097 -347.07413,2.11403 -369.38029,0.80954 z M 210.0861,209.58289 c 15.15375,-0.51456 100.61501,-0.93557 189.9139,-0.93557 147.13323,0 207.83626,0.68668 222.73875,2.51966 5.20441,0.64013 5.26371,0.61826 4.58756,-1.6922 -5.19192,-17.74095 -20.48444,-31.57636 -37.90442,-34.29279 -8.79235,-1.37106 -370.05143,-1.37106 -378.84378,0 -17.41998,2.71643 -32.7125,16.55184 -37.90442,34.29279 -0.67615,2.31046 -0.61685,2.33233 4.58756,1.6922 2.89992,-0.35669 17.6711,-1.06952 32.82485,-1.58409 z m 348.83149,-86.44945 c 0,-1.0097 -1.55041,-4.9349 -3.44535,-8.72267 -4.2565,-8.50822 -11.019,-15.040462 -19.95113,-19.271798 L 528.90529,92.00492 401.73398,91.74443 c -126.57516,-0.259269 -127.19981,-0.250888 -133.25174,1.787858 -7.20835,2.428319 -12.8511,6.129856 -17.95251,11.776512 -3.83928,4.24962 -9.44517,14.89488 -9.44654,17.93843 -7.4e-4,1.63291 8.22243,1.72202 158.91681,1.72202 154.44669,0 158.91759,-0.0517 158.91759,-1.83581 z"
     id="path5"
     transform="scale(0.03)" />
  <path
     style="fill:none;fill-opacity:1;fill-rule:evenodd;stroke-width:23.1528;paint-order:stroke fill markers"
     d="m 222.50163,756.66704 c -25.56842,-1.49528 -44.68656,-4.50449 -59.648,-9.38862 C 122.83464,734.21427 99.647474,708.01874 86.611275,661.14418 80.207356,638.11746 77.549849,621.8878 61.574323,508.24108 44.273779,385.16844 43.467437,378.29204 42.650814,346.86347 41.826676,315.14561 44.862768,295.76805 53.629378,276.79388 65.102569,251.96165 86.899782,232.60459 114.33373,222.88522 l 7.56867,-2.68145 0.62273,-5.55084 c 2.30072,-20.50798 7.94465,-35.6624 18.73166,-50.29606 11.05037,-14.99094 29.79644,-28.83459 45.35787,-33.49603 l 4.08085,-1.22241 0.69716,-6.51663 c 0.94286,-8.81336 4.76705,-21.63254 8.92486,-29.917233 11.66655,-23.246391 31.20029,-39.528958 57.20934,-47.687494 l 8.64779,-2.712645 H 399.508 532.84133 l 7.87208,2.274127 c 26.63527,7.694539 47.03146,24.311212 58.90304,47.988031 4.21908,8.414564 8.04341,21.198744 8.99088,30.055214 l 0.69716,6.51663 4.08085,1.22241 c 6.2083,1.85971 18.14266,8.13847 24.80574,13.05051 21.40134,15.77714 35.4958,39.87448 38.70539,66.17475 0.59442,4.87085 1.08201,9.13078 1.08353,9.4665 0.002,0.33572 3.43451,1.82664 7.62886,3.31315 31.45127,11.14656 54.75393,34.16615 64.72443,63.93818 8.25191,24.64032 9.39579,56.55112 3.7931,105.816 -1.66518,14.6421 -3.31967,19.52159 -8.31184,24.51376 -4.74141,4.74142 -10.16151,6.93133 -17.15526,6.93133 -10.2067,0 -19.18932,-6.05683 -22.72923,-15.32598 -1.85827,-4.86579 -1.71784,-9.73425 1.10351,-38.25934 2.25261,-22.77477 1.63115,-51.73187 -1.34765,-62.79355 -6.44879,-23.94748 -22.56237,-37.00021 -53.58804,-43.40874 -27.91696,-5.7664 -54.33318,-6.44137 -252.09788,-6.44137 -197.73805,0 -224.03408,0.67139 -252.12653,6.43728 -30.80645,6.32291 -47.13574,19.5587 -53.559397,43.41283 -1.655818,6.14884 -2.163658,11.53253 -2.535315,26.8772 -0.719065,29.68822 0.338892,39.31508 18.491822,168.26568 15.34608,109.01195 18.30368,127.2521 23.69396,146.12546 11.1857,39.16531 26.52581,51.42792 71.69352,57.31048 12.25751,1.5964 27.27649,1.73011 194.34194,1.73011 167.06545,0 182.08443,-0.13371 194.34194,-1.73011 41.66068,-5.42582 58.32481,-17.01925 68.8108,-47.87251 5.33144,-15.68687 11.28141,-46.35547 16.81718,-86.68274 1.15152,-8.38869 2.69493,-17.12378 3.42978,-19.41133 5.16865,-16.08952 24.60164,-22.02107 38.18995,-11.65677 1.8195,1.38781 4.59682,4.84993 6.17181,7.6936 2.44835,4.42056 2.84723,6.16917 2.7506,12.05838 -0.1296,7.89803 -7.00267,53.94942 -11.29062,75.65004 -11.34066,57.39332 -29.83908,86.96029 -65.32798,104.41704 -16.27213,8.00417 -33.4158,12.26076 -62.01154,15.39682 -12.5923,1.38097 -347.07413,2.11403 -369.38029,0.80954 z M 210.0861,209.58289 c 15.15375,-0.51456 100.61501,-0.93557 189.9139,-0.93557 147.13323,0 207.83626,0.68668 222.73875,2.51966 5.20441,0.64013 5.26371,0.61826 4.58756,-1.6922 -5.19192,-17.74095 -20.48444,-31.57636 -37.90442,-34.29279 -8.79235,-1.37106 -370.05143,-1.37106 -378.84378,0 -17.41998,2.71643 -32.7125,16.55184 -37.90442,34.29279 -0.67615,2.31046 -0.61685,2.33233 4.58756,1.6922 2.89992,-0.35669 17.6711,-1.06952 32.82485,-1.58409 z m 348.83149,-86.44945 c 0,-1.0097 -1.55041,-4.9349 -3.44535,-8.72267 -4.2565,-8.50822 -11.019,-15.040462 -19.95113,-19.271798 L 528.90529,92.00492 401.73398,91.74443 c -126.57516,-0.259269 -127.19981,-0.250888 -133.25174,1.787858 -7.20835,2.428319 -12.8511,6.129856 -17.95251,11.776512 -3.83928,4.24962 -9.44517,14.89488 -9.44654,17.93843 -7.4e-4,1.63291 8.22243,1.72202 158.91681,1.72202 154.44669,0 158.91759,-0.0517 158.91759,-1.83581 z"
     id="path6"
     transform="scale(0.03)" />
  <path
     style="fill:none;fill-opacity:1;fill-rule:evenodd;stroke-width:23.1528;paint-order:stroke fill markers;stroke:none"
     d="m 222.50163,756.66704 c -25.56842,-1.49528 -44.68656,-4.50449 -59.648,-9.38862 C 122.83464,734.21427 99.647474,708.01874 86.611275,661.14418 80.207356,638.11746 77.549849,621.8878 61.574323,508.24108 44.273779,385.16844 43.467437,378.29204 42.650814,346.86347 41.826676,315.14561 44.862768,295.76805 53.629378,276.79388 65.102569,251.96165 86.899782,232.60459 114.33373,222.88522 l 7.56867,-2.68145 0.62273,-5.55084 c 2.30072,-20.50798 7.94465,-35.6624 18.73166,-50.29606 11.05037,-14.99094 29.79644,-28.83459 45.35787,-33.49603 l 4.08085,-1.22241 0.69716,-6.51663 c 0.94286,-8.81336 4.76705,-21.63254 8.92486,-29.917233 11.66655,-23.246391 31.20029,-39.528958 57.20934,-47.687494 l 8.64779,-2.712645 H 399.508 532.84133 l 7.87208,2.274127 c 26.63527,7.694539 47.03146,24.311212 58.90304,47.988031 4.21908,8.414564 8.04341,21.198744 8.99088,30.055214 l 0.69716,6.51663 4.08085,1.22241 c 6.2083,1.85971 18.14266,8.13847 24.80574,13.05051 21.40134,15.77714 35.4958,39.87448 38.70539,66.17475 0.59442,4.87085 1.08201,9.13078 1.08353,9.4665 0.002,0.33572 3.43451,1.82664 7.62886,3.31315 31.45127,11.14656 54.75393,34.16615 64.72443,63.93818 8.25191,24.64032 9.39579,56.55112 3.7931,105.816 -1.66518,14.6421 -3.31967,19.52159 -8.31184,24.51376 -4.74141,4.74142 -10.16151,6.93133 -17.15526,6.93133 -10.2067,0 -19.18932,-6.05683 -22.72923,-15.32598 -1.85827,-4.86579 -1.71784,-9.73425 1.10351,-38.25934 2.25261,-22.77477 1.63115,-51.73187 -1.34765,-62.79355 -6.44879,-23.94748 -22.56237,-37.00021 -53.58804,-43.40874 -27.91696,-5.7664 -54.33318,-6.44137 -252.09788,-6.44137 -197.73805,0 -224.03408,0.67139 -252.12653,6.43728 -30.80645,6.32291 -47.13574,19.5587 -53.559397,43.41283 -1.655818,6.14884 -2.163658,11.53253 -2.535315,26.8772 -0.719065,29.68822 0.338892,39.31508 18.491822,168.26568 15.34608,109.01195 18.30368,127.2521 23.69396,146.12546 11.1857,39.16531 26.52581,51.42792 71.69352,57.31048 12.25751,1.5964 27.27649,1.73011 194.34194,1.73011 167.06545,0 182.08443,-0.13371 194.34194,-1.73011 41.66068,-5.42582 58.32481,-17.01925 68.8108,-47.87251 5.33144,-15.68687 11.28141,-46.35547 16.81718,-86.68274 1.15152,-8.38869 2.69493,-17.12378 3.42978,-19.41133 5.16865,-16.08952 24.60164,-22.02107 38.18995,-11.65677 1.8195,1.38781 4.59682,4.84993 6.17181,7.6936 2.44835,4.42056 2.84723,6.16917 2.7506,12.05838 -0.1296,7.89803 -7.00267,53.94942 -11.29062,75.65004 -11.34066,57.39332 -29.83908,86.96029 -65.32798,104.41704 -16.27213,8.00417 -33.4158,12.26076 -62.01154,15.39682 -12.5923,1.38097 -347.07413,2.11403 -369.38029,0.80954 z M 210.0861,209.58289 c 15.15375,-0.51456 100.61501,-0.93557 189.9139,-0.93557 147.13323,0 207.83626,0.68668 222.73875,2.51966 5.20441,0.64013 5.26371,0.61826 4.58756,-1.6922 -5.19192,-17.74095 -20.48444,-31.57636 -37.90442,-34.29279 -8.79235,-1.37106 -370.05143,-1.37106 -378.84378,0 -17.41998,2.71643 -32.7125,16.55184 -37.90442,34.29279 -0.67615,2.31046 -0.61685,2.33233 4.58756,1.6922 2.89992,-0.35669 17.6711,-1.06952 32.82485,-1.58409 z m 348.83149,-86.44945 c 0,-1.0097 -1.55041,-4.9349 -3.44535,-8.72267 -4.2565,-8.50822 -11.019,-15.040462 -19.95113,-19.271798 L 528.90529,92.00492 401.73398,91.74443 c -126.57516,-0.259269 -127.19981,-0.250888 -133.25174,1.787858 -7.20835,2.428319 -12.8511,6.129856 -17.95251,11.776512 -3.83928,4.24962 -9.44517,14.89488 -9.44654,17.93843 -7.4e-4,1.63291 8.22243,1.72202 158.91681,1.72202 154.44669,0 158.91759,-0.0517 158.91759,-1.83581 z"
     id="path7"
     transform="scale(0.03)" />
  <path
     style="fill:none;fill-opacity:1;fill-rule:evenodd;stroke:none;stroke-width:23.1528;paint-order:stroke fill markers"
     d="m 222.50163,756.66704 c -25.56842,-1.49528 -44.68656,-4.50449 -59.648,-9.38862 C 122.83464,734.21427 99.647474,708.01874 86.611275,661.14418 80.207356,638.11746 77.549849,621.8878 61.574323,508.24108 44.273779,385.16844 43.467437,378.29204 42.650814,346.86347 41.826676,315.14561 44.862768,295.76805 53.629378,276.79388 65.102569,251.96165 86.899782,232.60459 114.33373,222.88522 l 7.56867,-2.68145 0.62273,-5.55084 c 2.30072,-20.50798 7.94465,-35.6624 18.73166,-50.29606 11.05037,-14.99094 29.79644,-28.83459 45.35787,-33.49603 l 4.08085,-1.22241 0.69716,-6.51663 c 0.94286,-8.81336 4.76705,-21.63254 8.92486,-29.917233 11.66655,-23.246391 31.20029,-39.528958 57.20934,-47.687494 l 8.64779,-2.712645 H 399.508 532.84133 l 7.87208,2.274127 c 26.63527,7.694539 47.03146,24.311212 58.90304,47.988031 4.21908,8.414564 8.04341,21.198744 8.99088,30.055214 l 0.69716,6.51663 4.08085,1.22241 c 6.2083,1.85971 18.14266,8.13847 24.80574,13.05051 21.40134,15.77714 35.4958,39.87448 38.70539,66.17475 0.59442,4.87085 1.08201,9.13078 1.08353,9.4665 0.002,0.33572 3.43451,1.82664 7.62886,3.31315 31.45127,11.14656 54.75393,34.16615 64.72443,63.93818 8.25191,24.64032 9.39579,56.55112 3.7931,105.816 -1.66518,14.6421 -3.31967,19.52159 -8.31184,24.51376 -4.74141,4.74142 -10.16151,6.93133 -17.15526,6.93133 -10.2067,0 -19.18932,-6.05683 -22.72923,-15.32598 -1.85827,-4.86579 -1.71784,-9.73425 1.10351,-38.25934 2.25261,-22.77477 1.63115,-51.73187 -1.34765,-62.79355 -6.44879,-23.94748 -22.56237,-37.00021 -53.58804,-43.40874 -27.91696,-5.7664 -54.33318,-6.44137 -252.09788,-6.44137 -197.73805,0 -224.03408,0.67139 -252.12653,6.43728 -30.80645,6.32291 -47.13574,19.5587 -53.559397,43.41283 -1.655818,6.14884 -2.163658,11.53253 -2.535315,26.8772 -0.719065,29.68822 0.338892,39.31508 18.491822,168.26568 15.34608,109.01195 18.30368,127.2521 23.69396,146.12546 11.1857,39.16531 26.52581,51.42792 71.69352,57.31048 12.25751,1.5964 27.27649,1.73011 194.34194,1.73011 167.06545,0 182.08443,-0.13371 194.34194,-1.73011 41.66068,-5.42582 58.32481,-17.01925 68.8108,-47.87251 5.33144,-15.68687 11.28141,-46.35547 16.81718,-86.68274 1.15152,-8.38869 2.69493,-17.12378 3.42978,-19.41133 5.16865,-16.08952 24.60164,-22.02107 38.18995,-11.65677 1.8195,1.38781 4.59682,4.84993 6.17181,7.6936 2.44835,4.42056 2.84723,6.16917 2.7506,12.05838 -0.1296,7.89803 -7.00267,53.94942 -11.29062,75.65004 -11.34066,57.39332 -29.83908,86.96029 -65.32798,104.41704 -16.27213,8.00417 -33.4158,12.26076 -62.01154,15.39682 -12.5923,1.38097 -347.07413,2.11403 -369.38029,0.80954 z M 210.0861,209.58289 c 15.15375,-0.51456 100.61501,-0.93557 189.9139,-0.93557 147.13323,0 207.83626,0.68668 222.73875,2.51966 5.20441,0.64013 5.26371,0.61826 4.58756,-1.6922 -5.19192,-17.74095 -20.48444,-31.57636 -37.90442,-34.29279 -8.79235,-1.37106 -370.05143,-1.37106 -378.84378,0 -17.41998,2.71643 -32.7125,16.55184 -37.90442,34.29279 -0.67615,2.31046 -0.61685,2.33233 4.58756,1.6922 2.89992,-0.35669 17.6711,-1.06952 32.82485,-1.58409 z m 348.83149,-86.44945 c 0,-1.0097 -1.55041,-4.9349 -3.44535,-8.72267 -4.2565,-8.50822 -11.019,-15.040462 -19.95113,-19.271798 L 528.90529,92.00492 401.73398,91.74443 c -126.57516,-0.259269 -127.19981,-0.250888 -133.25174,1.787858 -7.20835,2.428319 -12.8511,6.129856 -17.95251,11.776512 -3.83928,4.24962 -9.44517,14.89488 -9.44654,17.93843 -7.4e-4,1.63291 8.22243,1.72202 158.91681,1.72202 154.44669,0 158.91759,-0.0517 158.91759,-1.83581 z"
     id="path8"
     transform="scale(0.03)" />
  <path
     style="fill:none;fill-opacity:1;fill-rule:evenodd;stroke:none;stroke-width:23.1528;paint-order:stroke fill markers"
     d="m 222.50163,756.66704 c -25.56842,-1.49528 -44.68656,-4.50449 -59.648,-9.38862 C 122.83464,734.21427 99.647474,708.01874 86.611275,661.14418 80.207356,638.11746 77.549849,621.8878 61.574323,508.24108 44.273779,385.16844 43.467437,378.29204 42.650814,346.86347 41.826676,315.14561 44.862768,295.76805 53.629378,276.79388 65.102569,251.96165 86.899782,232.60459 114.33373,222.88522 l 7.56867,-2.68145 0.62273,-5.55084 c 2.30072,-20.50798 7.94465,-35.6624 18.73166,-50.29606 11.05037,-14.99094 29.79644,-28.83459 45.35787,-33.49603 l 4.08085,-1.22241 0.69716,-6.51663 c 0.94286,-8.81336 4.76705,-21.63254 8.92486,-29.917233 11.66655,-23.246391 31.20029,-39.528958 57.20934,-47.687494 l 8.64779,-2.712645 H 399.508 532.84133 l 7.87208,2.274127 c 26.63527,7.694539 47.03146,24.311212 58.90304,47.988031 4.21908,8.414564 8.04341,21.198744 8.99088,30.055214 l 0.69716,6.51663 4.08085,1.22241 c 6.2083,1.85971 18.14266,8.13847 24.80574,13.05051 21.40134,15.77714 35.4958,39.87448 38.70539,66.17475 0.59442,4.87085 1.08201,9.13078 1.08353,9.4665 0.002,0.33572 3.43451,1.82664 7.62886,3.31315 31.45127,11.14656 54.75393,34.16615 64.72443,63.93818 8.25191,24.64032 9.39579,56.55112 3.7931,105.816 -1.66518,14.6421 -3.31967,19.52159 -8.31184,24.51376 -4.74141,4.74142 -10.16151,6.93133 -17.15526,6.93133 -10.2067,0 -19.18932,-6.05683 -22.72923,-15.32598 -1.85827,-4.86579 -1.71784,-9.73425 1.10351,-38.25934 2.25261,-22.77477 1.63115,-51.73187 -1.34765,-62.79355 -6.44879,-23.94748 -22.56237,-37.00021 -53.58804,-43.40874 -27.91696,-5.7664 -54.33318,-6.44137 -252.09788,-6.44137 -197.73805,0 -224.03408,0.67139 -252.12653,6.43728 -30.80645,6.32291 -47.13574,19.5587 -53.559397,43.41283 -1.655818,6.14884 -2.163658,11.53253 -2.535315,26.8772 -0.719065,29.68822 0.338892,39.31508 18.491822,168.26568 15.34608,109.01195 18.30368,127.2521 23.69396,146.12546 11.1857,39.16531 26.52581,51.42792 71.69352,57.31048 12.25751,1.5964 27.27649,1.73011 194.34194,1.73011 167.06545,0 182.08443,-0.13371 194.34194,-1.73011 41.66068,-5.42582 58.32481,-17.01925 68.8108,-47.87251 5.33144,-15.68687 11.28141,-46.35547 16.81718,-86.68274 1.15152,-8.38869 2.69493,-17.12378 3.42978,-19.41133 5.16865,-16.08952 24.60164,-22.02107 38.18995,-11.65677 1.8195,1.38781 4.59682,4.84993 6.17181,7.6936 2.44835,4.42056 2.84723,6.16917 2.7506,12.05838 -0.1296,7.89803 -7.00267,53.94942 -11.29062,75.65004 -11.34066,57.39332 -29.83908,86.96029 -65.32798,104.41704 -16.27213,8.00417 -33.4158,12.26076 -62.01154,15.39682 -12.5923,1.38097 -347.07413,2.11403 -369.38029,0.80954 z M 210.0861,209.58289 c 15.15375,-0.51456 100.61501,-0.93557 189.9139,-0.93557 147.13323,0 207.83626,0.68668 222.73875,2.51966 5.20441,0.64013 5.26371,0.61826 4.58756,-1.6922 -5.19192,-17.74095 -20.48444,-31.57636 -37.90442,-34.29279 -8.79235,-1.37106 -370.05143,-1.37106 -378.84378,0 -17.41998,2.71643 -32.7125,16.55184 -37.90442,34.29279 -0.67615,2.31046 -0.61685,2.33233 4.58756,1.6922 2.89992,-0.35669 17.6711,-1.06952 32.82485,-1.58409 z m 348.83149,-86.44945 c 0,-1.0097 -1.55041,-4.9349 -3.44535,-8.72267 -4.2565,-8.50822 -11.019,-15.040462 -19.95113,-19.271798 L 528.90529,92.00492 401.73398,91.74443 c -126.57516,-0.259269 -127.19981,-0.250888 -133.25174,1.787858 -7.20835,2.428319 -12.8511,6.129856 -17.95251,11.776512 -3.83928,4.24962 -9.44517,14.89488 -9.44654,17.93843 -7.4e-4,1.63291 8.22243,1.72202 158.91681,1.72202 154.44669,0 158.91759,-0.0517 158.91759,-1.83581 z"
     id="path9"
     transform="scale(0.03)" />
  <path
     style="fill:none;fill-opacity:1;fill-rule:evenodd;stroke:none;stroke-width:46.3055;paint-order:stroke fill markers"
     d=""
     id="path12"
     transform="scale(0.03)" />
  <path
     style="fill:#a7a7a7;fill-opacity:1;fill-rule:evenodd;stroke:none;stroke-width:0;paint-order:stroke fill markers;stroke-opacity:1;stroke-dasharray:none"
     d="M 226.32226,756.369 C 170.19753,753.3073 138.42996,741.89459 115.75144,716.64573 89.912106,687.87781 84.663571,667.81491 63.1626,515.62116 45.724954,392.18948 43.293908,370.7162 43.332991,340.4674 c 0.04907,-37.97604 7.285438,-63.4779 23.880575,-84.15811 9.269797,-11.55164 27.921629,-25.16486 41.753094,-30.47388 12.61608,-4.84251 13.37932,-5.94176 16.74274,-24.11339 5.07186,-27.40191 24.37832,-52.26181 50.6836,-65.26258 13.23066,-6.53895 14.53067,-7.72369 15.61616,-14.23151 2.13654,-12.80913 7.12006,-26.622902 12.94945,-35.894445 7.15565,-11.38093 24.10256,-27.568125 34.30017,-32.762528 20.30953,-10.345144 19.19845,-10.274524 161.65251,-10.274524 128.55618,0 132.90789,0.121841 144.561,4.047496 28.73522,9.680187 48.93131,29.902304 58.63666,58.712151 2.20503,6.54552 4.02667,14.3643 4.0481,17.37507 0.0346,4.85244 1.65111,6.23185 14.23398,12.14581 27.46625,12.90919 48.55567,40.87334 53.23457,70.58798 l 2.12771,13.51268 17.70558,8.43083 c 48.88276,23.27637 66.85977,65.27997 60.36011,141.03229 -3.10813,36.22461 -4.52009,42.02053 -11.83252,48.57144 -11.21986,10.0514 -29.93285,6.1462 -36.46003,-7.60878 -3.08912,-6.50984 -3.22284,-9.37053 -1.24939,-26.72551 2.80712,-24.68623 2.84272,-61.41483 0.0721,-74.33395 -4.71945,-22.00603 -22.63691,-38.22247 -48.76615,-44.13649 -29.41542,-6.65783 -60.34602,-7.39499 -275.78716,-6.57291 -224.62268,0.85712 -223.31575,0.80382 -251.81083,10.26836 -14.33498,4.76131 -28.39627,18.19295 -33.599941,32.09535 -5.541038,14.80374 -6.928691,38.65313 -4.031538,69.28945 2.96099,31.31135 30.501739,228.22555 35.594159,254.49551 9.36804,48.32624 20.97964,66.77002 47.85813,76.01759 22.21061,7.64157 41.46823,8.2522 236.49432,7.49898 163.91494,-0.63305 188.5737,-1.11466 200.03736,-3.90697 42.57365,-10.37006 53.57093,-30.60857 66.58788,-122.54299 4.59987,-32.48738 6.59411,-37.11268 18.56484,-43.05835 6.25992,-3.10919 8.60846,-3.34947 14.751,-1.50911 4.01815,1.20385 9.46669,4.49411 12.10791,7.31164 4.21851,4.50017 4.77807,6.83639 4.60386,19.2213 -0.21652,15.39196 -8.57119,67.78621 -14.80074,92.81926 -6.01685,24.17833 -19.45102,50.19537 -32.81679,63.55409 -22.28133,22.26958 -50.79172,32.38006 -100.96817,35.80581 -24.73458,1.68874 -324.96787,2.26075 -354.04501,0.67454 z M 364.08364,209.25264 c 101.20541,-0.47884 201.72202,-0.0858 223.37023,0.87339 21.64822,0.9592 39.67007,1.51266 40.04854,1.2299 0.37849,-0.28276 -0.39971,-3.81037 -1.72932,-7.83914 -3.11739,-9.44573 -16.8678,-23.16304 -26.698,-26.6337 -6.33045,-2.23504 -41.68325,-2.71335 -200.5511,-2.71335 H 205.65806 l -8.00633,4.28553 c -6.29581,3.36994 -22.49798,18.36757 -22.49798,20.82539 0,0.27462 -0.8508,3.46589 -1.89067,7.0917 -1.79264,6.25059 -1.6651,6.51872 2.46003,5.17163 2.39288,-0.78141 87.15512,-1.81252 188.36053,-2.29135 z m 193.82369,-90.67945 c -4.92456,-11.99018 -9.39742,-16.90446 -20.59936,-22.632231 l -10.58449,-5.412054 -125.10835,0.01098 c -81.22904,0.0071 -127.71566,0.735024 -132.54222,2.075377 -4.08864,1.135421 -10.56148,4.81047 -14.3841,8.166768 -6.50903,5.71501 -14.59041,18.52344 -14.59041,23.12481 0,1.39981 50.68804,2.04642 160.42002,2.04642 h 160.42001 z"
     id="path13"
     transform="scale(0.03)" />
  <path
     style="fill:#a7a7a7;fill-opacity:1;fill-rule:evenodd;stroke:#a7a7a7;stroke-width:8.9;stroke-dasharray:none;stroke-opacity:1;paint-order:stroke fill markers"
     d="m 287.70445,619.87575 c -9.00197,-5.48835 -13.27139,-16.10414 -10.37058,-25.78616 1.20781,-4.03131 4.9048,-9.60894 8.21553,-12.39474 l 6.01951,-5.06508 h 107.2038 c 117.60741,0 115.56014,-0.1975 121.73518,11.74369 6.05492,11.70892 2.19078,25.71783 -8.90116,32.27 -4.86298,2.87263 -16.84483,3.21799 -111.41837,3.21142 -102.81646,-0.007 -106.16325,-0.12553 -112.48391,-3.97913 z"
     id="path14"
     transform="scale(0.03)" />
  <path
     style="fill:#a7a7a7;fill-opacity:1;fill-rule:evenodd;stroke:#a7a7a7;stroke-width:10.21499767;stroke-dasharray:none;stroke-opacity:1;paint-order:stroke fill markers"
     d="M 204.67405,753.61555 C 142.71625,746.54514 107.33838,720.55687 91.442106,670.43637 84.629493,648.95638 77.027336,605.10744 63.236768,507.74908 45.739434,384.22176 44.71134,374.1244 45.703498,335.54736 c 0.718333,-27.9302 1.583821,-35.56926 5.239844,-46.24847 9.012808,-26.32629 27.846521,-47.05763 54.961348,-60.4991 7.91548,-3.92389 15.16379,-8.57686 16.10735,-10.33993 0.94357,-1.76308 3.09105,-9.13649 4.77218,-16.38536 6.3202,-27.25219 22.986,-49.17115 48.17411,-63.35888 15.11112,-8.51166 15.77646,-9.4206 21.60628,-29.51731 2.20224,-7.59161 6.76133,-17.965613 10.1313,-23.05334 8.5661,-12.932461 25.45151,-27.80797 38.81915,-34.198448 l 11.31151,-5.407533 81.82018,-1.762775 c 45.61161,-0.98268 108.79223,-1.036968 142.76869,-0.122674 l 60.94853,1.640101 13.68885,6.727141 c 25.45409,12.50894 44.25498,37.057051 49.98463,65.264368 l 2.2401,11.02809 14.1884,7.65781 c 26.53187,14.31986 45.73453,39.29761 51.64125,67.17201 1.55277,7.32771 2.83861,13.94563 2.8574,14.70648 0.0188,0.76085 8.0139,5.50473 17.76691,10.54197 41.80633,21.59211 58.22878,49.11183 60.46388,101.3215 1.24671,29.12174 -2.28437,68.8224 -6.99398,78.63508 -4.64534,9.6787 -15.60744,14.89282 -24.87805,11.83323 -3.75947,-1.24072 -9.04201,-4.87828 -11.73901,-8.08348 l -4.90359,-5.8276 1.19445,-45.70155 c 1.40186,-53.63641 0.005,-61.76169 -13.19607,-76.75889 -9.69903,-11.01869 -23.41929,-18.01411 -44.28373,-22.57858 -14.45577,-3.16245 -34.31496,-3.43663 -248.9194,-3.43663 -189.26599,0 -235.99161,0.5093 -247.97048,2.70286 -47.7725,8.74802 -62.976625,28.33887 -62.976625,81.14678 0,26.91354 16.157195,154.51167 32.618995,257.60177 12.08892,75.70543 22.47747,93.1851 61.84595,104.06146 9.24823,2.555 37.71685,3.08157 195.54066,3.61671 101.59412,0.34448 195.91146,-0.17413 209.5941,-1.15247 39.81542,-2.84694 57.48117,-12.14266 68.95229,-36.28279 7.58596,-15.96412 10.85016,-29.14387 18.77404,-75.80335 3.61655,-21.296 7.53816,-41.15501 8.7147,-44.13115 2.50626,-6.33982 12.92497,-13.27032 19.94942,-13.27032 6.30034,0 16.77806,6.3707 19.81718,12.04932 3.06082,5.7192 1.39141,27.68392 -4.85948,63.93661 -6.70591,38.89173 -10.34958,52.48758 -19.15584,71.47751 -17.97388,38.75919 -42.32316,56.95396 -88.84676,66.38997 -14.34023,2.90851 -37.66474,3.33177 -205.11008,3.72205 -103.91144,0.24221 -195.57195,-0.3176 -203.69003,-1.244 z M 627.79806,207.9887 c 3.2e-4,-5.24751 -3.49589,-11.21542 -11.54857,-19.71302 -14.48518,-15.28547 3.85664,-14.03519 -215.89643,-14.71676 l -196.94092,-0.61082 -12.28716,9.23643 c -13.38557,10.06211 -16.90861,14.46598 -18.77854,23.47353 l -1.22566,5.90406 h 228.33853 c 219.30261,0 228.33853,-0.14141 228.33875,-3.57342 z m -66.91245,-84.10119 c 0,-7.89676 -13.02455,-23.941951 -24.02984,-29.602803 -6.96734,-3.583832 -13.23843,-3.755802 -136.95984,-3.755802 H 270.23778 l -8.67364,4.540228 c -9.0977,4.762214 -21.46574,20.417197 -21.46574,27.170497 0,3.60911 4.51409,3.71363 160.3936,3.71363 110.67592,0 160.39361,-0.64033 160.39361,-2.06575 z"
     id="path15"
     transform="scale(0.03)" />
</svg>
